<?xml version="1.0" encoding="UTF-8"?>
<svg version="1.1" xmlns="http://www.w3.org/2000/svg" width="1080" height="1080">
<path d="M0 0 C356.4 0 712.8 0 1080 0 C1080 356.4 1080 712.8 1080 1080 C723.6 1080 367.2 1080 0 1080 C0 723.6 0 367.2 0 0 Z " fill="#FEFEFE" transform="translate(0,0)"/>
<path d="M0 0 C4.52767478 3.5030242 8.8396713 7.24153808 13.15234375 11.00390625 C26.74806961 22.84321131 39.84549721 32.67752394 58.609375 33.84765625 C60.11786852 33.95923088 61.62633114 34.07122385 63.13476562 34.18359375 C65.46834047 34.34918186 67.80202769 34.51026606 70.13647461 34.66308594 C89.99078361 35.98938166 107.7944398 40.50932299 121.95703125 55.453125 C132.88247757 68.39333994 135.92122922 81.97093249 137.46484375 98.375 C137.58770752 99.68033691 137.71057129 100.98567383 137.8371582 102.33056641 C138.07805661 104.93242755 138.29351959 107.53272384 138.49682617 110.13818359 C140.19028252 129.65958156 147.47692903 142.93992513 160.13867188 157.28222656 C167.95649578 166.21486651 175.33516857 174.98491864 179.76171875 186.13671875 C180.09816406 186.97976563 180.43460938 187.8228125 180.78125 188.69140625 C185.04062288 201.48897409 183.8153328 215.82062622 178.76171875 228.13671875 C178.43429687 228.98234375 178.106875 229.82796875 177.76953125 230.69921875 C174.5719882 237.9812146 169.35971523 243.64719376 164.15625 249.54492188 C147.32128241 268.76130645 139.43706902 285.04903438 137.82421875 310.57421875 C136.55783534 330.28651173 132.2861438 347.43222332 117.375 361.3671875 C102.47270688 373.83645317 85.93107542 376.1609425 67.1953125 377.5625 C52.60733805 378.63826661 52.60733805 378.63826661 38.76171875 383.13671875 C37.88128906 383.5234375 37.00085938 383.91015625 36.09375 384.30859375 C28.94075978 387.81799732 23.30811527 392.73368534 17.390625 397.96484375 C-0.26304798 413.54020882 -15.89086445 423.18710509 -40.23828125 422.13671875 C-57.10135343 420.26567563 -69.59310166 410.61234381 -81.68359375 399.43359375 C-89.70314353 392.22335633 -97.96018475 385.77316144 -108.23828125 382.13671875 C-108.85880371 381.89663086 -109.47932617 381.65654297 -110.11865234 381.40917969 C-119.70485682 378.06597787 -130.02314181 377.85073732 -140.06884766 377.05810547 C-158.69739218 375.55746286 -174.71990173 371.41074479 -188.11328125 357.32421875 C-192.34610438 352.34758431 -195.38215621 346.98744763 -198.23828125 341.13671875 C-198.75519531 340.26660156 -199.27210938 339.39648438 -199.8046875 338.5 C-201.81651013 333.78016545 -202.24796568 329.14768465 -202.80078125 324.07421875 C-202.92590088 323.01944336 -203.05102051 321.96466797 -203.17993164 320.87792969 C-203.88819638 314.77890723 -204.45751359 308.67775368 -204.95385742 302.55834961 C-205.66997818 293.93732708 -206.65266867 286.12068276 -210.23828125 278.13671875 C-210.81835938 276.81414062 -210.81835938 276.81414062 -211.41015625 275.46484375 C-215.26411968 267.62089464 -220.88319009 261.48405383 -226.61523438 254.99121094 C-234.43305828 246.05857099 -241.81173107 237.28851886 -246.23828125 226.13671875 C-246.57472656 225.29367187 -246.91117187 224.450625 -247.2578125 223.58203125 C-252.2805518 208.49087847 -249.73022793 192.16443082 -242.76953125 178.1875 C-238.74696885 171.43393323 -233.5107349 165.64064158 -228.3671875 159.734375 C-227.32376252 158.53555319 -226.28078858 157.33633864 -225.23828125 156.13671875 C-224.74183105 155.56550293 -224.24538086 154.99428711 -223.73388672 154.40576172 C-222.27642714 152.70789643 -220.84876534 150.98852243 -219.42578125 149.26171875 C-218.59433594 148.27429688 -217.76289063 147.286875 -216.90625 146.26953125 C-208.78263133 134.71468224 -206.09273454 122.42114544 -204.98828125 108.63671875 C-204.723435 105.68770769 -204.44422755 102.74018546 -204.16015625 99.79296875 C-204.09202225 99.07541412 -204.02388824 98.3578595 -203.95368958 97.61856079 C-202.01218518 78.18926221 -196.89400222 61.9223288 -181.48828125 48.88671875 C-166.75777396 37.73748158 -150.9458169 35.71508536 -133.08618164 34.55541992 C-112.19773023 33.16100653 -97.66857507 26.51047333 -82.09277344 12.75976562 C-73.16013349 4.94194172 -64.39008136 -2.43673107 -53.23828125 -6.86328125 C-52.39523437 -7.19972656 -51.5521875 -7.53617187 -50.68359375 -7.8828125 C-33.78757468 -13.50625958 -14.4917955 -9.98612515 0 0 Z " fill="#5ED6A0" transform="translate(573.23828125,333.86328125)"/>
<path d="M0 0 C3.90818698 2.78745689 6.55122717 5.472431 8.6875 9.828125 C9.12109375 12.6953125 9.12109375 12.6953125 9.125 15.703125 C9.14433594 16.69054687 9.16367187 17.67796875 9.18359375 18.6953125 C7.71385871 27.97663139 -0.12621229 34.07416911 -6.47167969 40.39135742 C-7.62245021 41.54783614 -8.77259043 42.70494235 -9.92214966 43.86262512 C-13.03510054 46.99347206 -16.1574922 50.1147374 -19.28225613 53.23378921 C-21.89435738 55.84279369 -24.50184543 58.45638451 -27.10938001 61.06995183 C-33.26271315 67.23731674 -39.42379591 73.39686267 -45.58984375 79.55151367 C-51.94201592 85.8922039 -58.28130102 92.24556994 -64.61431956 98.60538596 C-70.06114639 104.07439217 -75.5157248 109.53558057 -80.97658467 114.99057466 C-84.23407383 118.24469868 -87.48862198 121.50162828 -90.7358017 124.76604271 C-93.79010023 127.835844 -96.85400721 130.89572451 -99.92544174 133.94837761 C-101.04791028 135.06716964 -102.16701644 136.18934737 -103.28239059 137.31521225 C-115.31479487 149.45206923 -115.31479487 149.45206923 -123.78125 151.39453125 C-133.8214953 151.37522309 -139.87375358 144.65655805 -146.63839722 137.91906738 C-147.67337789 136.87871838 -148.70796548 135.83797819 -149.7421875 134.796875 C-150.82411768 133.71696947 -151.90649255 132.63750929 -152.98928833 131.55847168 C-155.24483254 129.30732672 -157.49492083 127.05090539 -159.74121094 124.79052734 C-162.61595514 121.89863085 -165.50404448 119.0204966 -168.39631462 116.14614105 C-170.62882645 113.92447937 -172.85413223 111.69571032 -175.07733536 109.46473694 C-176.13964027 108.40043663 -177.2041621 107.33834415 -178.27096176 106.27854919 C-179.75948482 104.79766766 -181.23801684 103.30746903 -182.71435547 101.81445312 C-183.55626434 100.97015747 -184.39817322 100.12586182 -185.26559448 99.25598145 C-189.59148121 94.12500111 -189.76442572 89.19438207 -189.61328125 82.703125 C-189.18766239 78.63487198 -188.20968082 76.72530582 -185.3125 73.828125 C-180.8220571 70.51984192 -176.16508723 67.87222012 -170.39486694 68.28085327 C-162.36547645 70.39107617 -155.95174097 76.61943679 -150.3359375 82.4140625 C-149.63981354 83.11584625 -148.94368958 83.81763 -148.22647095 84.54067993 C-146.03711414 86.75216546 -143.86219901 88.97723388 -141.6875 91.203125 C-140.19234525 92.71837504 -138.69625909 94.23270661 -137.19921875 95.74609375 C-133.55947614 99.42959131 -129.93260272 103.12532797 -126.3125 106.828125 C-122.84258125 105.33889516 -120.61619935 103.37037494 -117.9683075 100.69752502 C-117.10626709 99.83245331 -116.24422668 98.96738159 -115.35606384 98.07609558 C-114.40876648 97.11534131 -113.46154932 96.15450796 -112.5144043 95.19360352 C-111.51086777 94.18295241 -110.50685786 93.17277116 -109.50241089 92.1630249 C-107.34161971 89.98914077 -105.18388011 87.81228781 -103.02835655 85.63318062 C-99.61735629 82.18556425 -96.19764606 78.74667785 -92.77632141 75.30931091 C-83.04916452 65.53387593 -73.33378183 55.74678896 -63.62719727 45.95092773 C-58.26514521 40.53971295 -52.89587798 35.1357614 -47.5188325 29.7394442 C-44.11878445 26.32633693 -40.72793625 22.90442656 -37.3436836 19.47566044 C-35.2323234 17.34077366 -33.11258363 15.2143618 -30.99042892 13.09020996 C-30.01099288 12.10649325 -29.03498385 11.11935013 -28.06277275 10.12849236 C-20.60814137 2.53651813 -11.23002773 -5.69089243 0 0 Z " fill="#FDFEFE" transform="translate(630.3125,465.171875)"/>
</svg>
